<svg xmlns:dc="http://purl.org/dc/elements/1.1/" xmlns:cc="http://creativecommons.org/ns#" xmlns:rdf="http://www.w3.org/1999/02/22-rdf-syntax-ns#" xmlns:svg="http://www.w3.org/2000/svg" xmlns="http://www.w3.org/2000/svg" xmlns:sodipodi="http://sodipodi.sourceforge.net/DTD/sodipodi-0.dtd" xmlns:inkscape="http://www.inkscape.org/namespaces/inkscape" width="512" height="512" viewBox="0 0 135.46667 135.46667" version="1.1" id="svg132" inkscape:version="1.0.2-2 (e86c870879, 2021-01-15)" sodipodi:docname="UP quadrado.svg"><defs id="defs126"/><metadata id="metadata129"/><g inkscape:label="Layer 1" inkscape:groupmode="layer" id="layer1" transform="translate(-2.4622623,-12.57856)"><g id="g173" transform="matrix(1.8842041,0,0,1.8842041,7.1458643,26.151658)"><path d="m 9.1193919,51.165797 c -4.5953923,0 -8.1948673,-3.49026 -8.1948673,-7.945888 V 20.966483 c 0,-1.44512 1.175339,-2.620459 2.620459,-2.620459 1.538732,0 2.226513,1.316405 2.226513,2.620459 v 22.547261 c 0,2.183607 1.384013,3.386249 3.8959103,3.386249 H 23.110344 c 2.509946,0 3.893309,-1.202642 3.893309,-3.386249 V 15.857531 h 4.849572 v 35.308266 z" style="fill:#f37020;fill-opacity:1;fill-rule:nonzero;stroke:none;stroke-width:0.650077" id="path38"/><path d="M 35.20977,51.165797 V 18.346024 h 22.65387 c 4.79107,0 8.13636,3.858205 8.13636,9.383857 0,5.489248 -4.09613,9.472918 -9.7401,9.472918 h -8.09475 c -1.48868,0 -2.52815,-0.915958 -2.52815,-2.227163 0,-1.311855 1.03947,-2.228463 2.52815,-2.228463 h 7.87893 c 2.49434,0 4.76571,-2.391632 4.76571,-5.017292 0,-2.625659 -2.22716,-4.928881 -4.76571,-4.928881 H 44.31409 c -2.60485,0 -4.03892,1.247497 -4.03892,3.512364 v 24.852433 z" style="fill:#f37020;fill-opacity:1;fill-rule:nonzero;stroke:none;stroke-width:0.650077" id="path42"/><path d="m 27.111436,11.44097 4.74166,-5.1180533 v 6.2049823 h -4.74166 z" style="fill:#1e1e1e;fill-opacity:1;fill-rule:nonzero;stroke:none;stroke-width:0.650077" id="path54"/></g></g></svg>